<svg xmlns="http://www.w3.org/2000/svg" xmlns:xlink="http://www.w3.org/1999/xlink" width="17" height="51" viewBox="0 0 17 51">
  <defs>
    <clipPath id="clip-Web_1920_1">
      <rect width="17" height="51"/>
    </clipPath>
  </defs>
  <g id="Web_1920_1" data-name="Web 1920 – 1" clip-path="url(#clip-Web_1920_1)">
    <g id="rating">
      <path id="star" d="M14.624,5.38l-4.618-.705L7.936.265a.489.489,0,0,0-.849,0L5.017,4.674.4,5.38a.469.469,0,0,0-.265.792L3.489,9.611,2.7,14.472a.47.47,0,0,0,.69.486l4.125-2.28,4.125,2.28a.47.47,0,0,0,.69-.486l-.793-4.862,3.355-3.439a.47.47,0,0,0-.265-.792Z" transform="translate(0.978 34.981)" fill="#ffc107"/>
      <path id="star-2" data-name="star" d="M14.624,5.38l-4.618-.705L7.936.265a.489.489,0,0,0-.849,0L5.017,4.674.4,5.38a.469.469,0,0,0-.265.792L3.489,9.611,2.7,14.472a.47.47,0,0,0,.69.486l4.125-2.28,4.125,2.28a.47.47,0,0,0,.69-.486l-.793-4.862,3.355-3.439a.47.47,0,0,0-.265-.792Z" transform="translate(0.978 17.981)" fill="#ff5a00"/>
      <path id="star-3" data-name="star" d="M14.624,5.38l-4.618-.705L7.936.265a.489.489,0,0,0-.849,0L5.017,4.674.4,5.38a.469.469,0,0,0-.265.792L3.489,9.611,2.7,14.472a.47.47,0,0,0,.69.486l4.125-2.28,4.125,2.28a.47.47,0,0,0,.69-.486l-.793-4.862,3.355-3.439a.47.47,0,0,0-.265-.792Z" transform="translate(0.978 0.981)" fill="#ddd"/>
    </g>
  </g>
</svg>
